<svg width="20" height="20" viewBox="0 0 20 20" fill="none" xmlns="http://www.w3.org/2000/svg">
<g clip-path="url(#clip0_292_7554)">
<path d="M19.7232 10C19.7232 14.9914 16.1168 19.1285 11.4025 19.8785V12.8906H13.7003L14.1375 10H11.4025V8.12422C11.4025 7.3332 11.7846 6.5625 13.0096 6.5625H14.2531V4.10156C14.2531 4.10156 13.1244 3.90625 12.0454 3.90625C9.79302 3.90625 8.32072 5.29063 8.32072 7.79688V10H5.8168V12.8906H8.32072V19.8785C3.60641 19.1285 0 14.9914 0 10C0 4.47734 4.41537 0 9.86159 0C15.3078 0 19.7232 4.47734 19.7232 10Z" fill="#1877F2"/>
<path d="M13.6999 12.8906L14.1371 10H11.4021V8.12418C11.4021 7.33336 11.7841 6.5625 13.0092 6.5625H14.2527V4.10156C14.2527 4.10156 13.1242 3.90625 12.0452 3.90625C9.79259 3.90625 8.32033 5.29063 8.32033 7.79688V10H5.81641V12.8906H8.32033V19.8785C8.82242 19.9584 9.33699 20 9.8612 20C10.3854 20 10.9 19.9584 11.4021 19.8785V12.8906H13.6999Z" fill="white"/>
</g>
<defs>
<clipPath id="clip0_292_7554">
<rect width="19.7232" height="20" fill="white"/>
</clipPath>
</defs>
</svg>
