<svg width="20" height="20" viewBox="0 0 20 20" fill="none" xmlns="http://www.w3.org/2000/svg">
<g clip-path="url(#clip0_292_7545)">
<path d="M4.43242 12.086L3.73625 14.6849L1.19176 14.7388C0.431328 13.3283 0 11.7146 0 9.99978C0 8.34154 0.403281 6.77779 1.11812 5.40088H1.11867L3.38398 5.81619L4.37633 8.06791C4.16863 8.67342 4.05543 9.32342 4.05543 9.99978C4.05551 10.7338 4.18848 11.4372 4.43242 12.086Z" fill="#FBBB00"/>
<path d="M19.8242 8.13184C19.939 8.73676 19.9989 9.36148 19.9989 9.99996C19.9989 10.7159 19.9236 11.4143 19.7802 12.0879C19.2934 14.3802 18.0214 16.3818 16.2594 17.7983L16.2588 17.7978L13.4055 17.6522L13.0017 15.1313C14.1709 14.4456 15.0847 13.3725 15.566 12.0879H10.2188V8.13184H15.644H19.8242Z" fill="#518EF8"/>
<path d="M16.2595 17.7975L16.2601 17.798C14.5464 19.1755 12.3694 19.9996 9.99965 19.9996C6.19141 19.9996 2.88043 17.8711 1.19141 14.7387L4.43207 12.0859C5.27656 14.3398 7.45074 15.9442 9.99965 15.9442C11.0952 15.9442 12.1216 15.648 13.0024 15.131L16.2595 17.7975Z" fill="#28B446"/>
<path d="M16.382 2.30219L13.1425 4.95437C12.2309 4.38461 11.1534 4.05547 9.99906 4.05547C7.39246 4.05547 5.17762 5.73348 4.37543 8.06812L1.11773 5.40109H1.11719C2.78148 2.1923 6.13422 0 9.99906 0C12.4254 0 14.6502 0.864297 16.382 2.30219Z" fill="#F14336"/>
</g>
<defs>
<clipPath id="clip0_292_7545">
<rect width="20" height="20" fill="white"/>
</clipPath>
</defs>
</svg>
